<?xml version="1.0" encoding="UTF-8" standalone="no"?>
<!-- Generator: Adobe Illustrator 16.0.0, SVG Export Plug-In . SVG Version: 6.00 Build 0)  -->

<svg
   xmlns:dc="http://purl.org/dc/elements/1.1/"
   xmlns:cc="http://creativecommons.org/ns#"
   xmlns:rdf="http://www.w3.org/1999/02/22-rdf-syntax-ns#"
   xmlns:svg="http://www.w3.org/2000/svg"
   xmlns="http://www.w3.org/2000/svg"
   xmlns:sodipodi="http://sodipodi.sourceforge.net/DTD/sodipodi-0.dtd"
   xmlns:inkscape="http://www.inkscape.org/namespaces/inkscape"
   version="1.1"
   id="Layer_1"
   x="0px"
   y="0px"
   width="600"
   height="300"
   viewBox="0 0 600 300"
   enable-background="new 0 0 720 720"
   xml:space="preserve"
   sodipodi:docname="fuerth-io-logo.svg"
   inkscape:version="0.92.3 (2405546, 2018-03-11)"><metadata
   id="metadata1086"><rdf:RDF><cc:Work
       rdf:about=""><dc:format>image/svg+xml</dc:format><dc:type
         rdf:resource="http://purl.org/dc/dcmitype/StillImage" /><dc:title></dc:title></cc:Work></rdf:RDF></metadata><defs
   id="defs1084" /><sodipodi:namedview
   pagecolor="#ffffff"
   bordercolor="#666666"
   borderopacity="1"
   objecttolerance="10"
   gridtolerance="10"
   guidetolerance="10"
   inkscape:pageopacity="0"
   inkscape:pageshadow="2"
   inkscape:window-width="2495"
   inkscape:window-height="1416"
   id="namedview1082"
   showgrid="false"
   inkscape:zoom="1.7694444"
   inkscape:cx="362.54317"
   inkscape:cy="133.94035"
   inkscape:window-x="1985"
   inkscape:window-y="24"
   inkscape:window-maximized="1"
   inkscape:current-layer="Layer_1" />
<g
   id="g1079"
   transform="translate(-61.601256,-208.63423)">
	<g
   id="g1029">
		<path
   d="m 230.664,445.603 h -6.604 v -9.957 h 6.604 V 431.9 c 0,-5.817 1.479,-10.155 4.24,-12.916 2.76,-2.76 6.605,-4.141 11.731,-4.141 4.142,0 7,0.592 9.663,1.381 v 10.057 c -2.367,-0.789 -4.438,-1.283 -7,-1.283 -4.536,0 -6.9,2.465 -6.9,7.887 v 2.859 H 256.2 v 9.859 h -13.604 v 41.803 h -11.932 z"
   id="path1011"
   inkscape:connector-curvature="0"
   style="fill:#414042" />
		<path
   d="m 264.479,468.476 v -33.125 h 11.928 v 29.576 c 0,8.084 4.043,12.719 11.142,12.719 6.901,0 11.733,-4.832 11.733,-12.916 v -29.379 h 11.929 v 52.055 h -11.929 v -8.084 c -3.354,4.93 -8.185,9.169 -16.268,9.169 -11.734,-10e-4 -18.535,-7.888 -18.535,-20.015 z"
   id="path1013"
   inkscape:connector-curvature="0"
   style="fill:#414042" />
		<path
   d="m 323.331,461.575 v -0.197 c 0,-14.889 10.549,-27.113 25.437,-27.113 16.563,0 24.943,13.016 24.943,28 0,1.085 -0.1,2.168 -0.198,3.352 h -38.251 c 1.281,8.479 7.296,13.213 14.984,13.213 5.817,0 9.959,-2.17 14.098,-6.213 l 7.002,6.213 c -4.932,5.914 -11.733,9.76 -21.297,9.76 -15.083,-10e-4 -26.718,-10.944 -26.718,-27.015 z m 38.55,-3.846 c -0.79,-7.69 -5.324,-13.704 -13.212,-13.704 -7.296,0 -12.423,5.62 -13.506,13.704 z"
   id="path1015"
   inkscape:connector-curvature="0"
   style="fill:#414042" />
		<path
   d="m 385.735,435.351 h 11.929 v 11.731 c 3.253,-7.789 9.268,-13.112 18.437,-12.718 v 12.619 h -0.69 c -10.451,0 -17.746,6.803 -17.746,20.605 v 19.816 h -11.929 v -52.053 z"
   id="path1017"
   inkscape:connector-curvature="0"
   style="fill:#414042" />
		<path
   d="m 428.912,473.011 v -27.408 h -6.604 v -10.252 h 6.604 v -14.296 h 11.932 v 14.296 h 13.999 v 10.252 h -13.999 v 25.535 c 0,4.635 2.364,6.508 6.407,6.508 2.663,0 5.028,-0.593 7.395,-1.775 v 9.761 c -2.957,1.676 -6.312,2.661 -10.746,2.661 -8.775,-0.001 -14.988,-3.846 -14.988,-15.282 z"
   id="path1019"
   inkscape:connector-curvature="0"
   style="fill:#414042" />
		<path
   d="m 466.867,415.435 h 11.93 v 28 c 3.352,-4.93 8.182,-9.17 16.268,-9.17 11.73,0 18.535,7.888 18.535,20.015 v 33.126 H 501.668 V 457.83 c 0,-8.085 -4.04,-12.719 -11.141,-12.719 -6.9,0 -11.73,4.831 -11.73,12.916 v 29.379 h -11.93 z"
   id="path1021"
   inkscape:connector-curvature="0"
   style="fill:#414042" />
		<path
   d="m 527.199,473.898 h 13.113 v 13.507 h -13.113 z"
   id="path1023"
   inkscape:connector-curvature="0"
   style="fill:#009580" />
		<path
   d="m 554.703,416.026 h 12.818 v 11.338 h -12.818 z m 0.494,19.325 h 11.929 v 52.055 h -11.929 z"
   id="path1025"
   inkscape:connector-curvature="0"
   style="fill:#009580" />
		<path
   d="m 579.842,461.674 v -0.197 c 0,-14.888 11.83,-27.212 27.801,-27.212 15.972,0 27.705,12.128 27.705,27.014 v 0.198 c 0,14.788 -11.832,27.112 -27.902,27.112 -15.874,0 -27.604,-12.127 -27.604,-26.915 z m 43.577,0 v -0.197 c 0,-9.169 -6.606,-16.761 -15.974,-16.761 -9.562,0 -15.675,7.492 -15.675,16.563 v 0.198 c 0,9.07 6.604,16.76 15.872,16.76 9.664,-0.001 15.777,-7.591 15.777,-16.563 z"
   id="path1027"
   inkscape:connector-curvature="0"
   style="fill:#009580" />
	</g>
	<g
   id="g1077">
		<path
   d="m 320.123,345.802 c 1.662,-2.242 3.138,-4.631 4.354,-7.145 2.064,-4.273 3.389,-8.994 3.277,-13.768 -0.192,-8.221 -4.842,-14.613 -11.878,-18.5 -16.005,-8.832 -38.075,-6.927 -54.085,0.785 3.063,-2.1 5.99,-4.396 8.755,-6.874 12.668,-11.368 26.041,-30.948 19.491,-48.805 -7.991,-21.794 -37.158,-18.612 -54.154,-11.376 -3.234,54.879 -12.924,94.688 -20.869,119.139 0.058,-0.055 0.115,-0.106 0.176,-0.16 -0.457,1.939 -0.809,3.891 -1.276,5.593 -6.925,25.28 -15.993,50.13 -26.879,73.976 -10.053,22.021 -21.699,42.959 -34.632,63.402 1.984,-2.497 3.971,-4.992 5.954,-7.492 16.604,-20.885 31.442,-43.559 43.997,-67.102 11.557,-21.675 22.383,-43.852 30.62,-67.031 0.13,-0.37 0.224,-0.74 0.304,-1.107 9.634,10.934 20.842,20.502 33.488,27.781 7.758,4.468 16.031,8.135 24.762,10.199 10.831,2.561 22.177,-1.139 26.547,-11.977 4.317,-10.703 1.37,-23.346 -3.409,-33.36 1.988,-1.206 3.988,-4.188 5.457,-6.178 z"
   id="path1031"
   inkscape:connector-curvature="0"
   style="fill:#009580" />
		<g
   id="g1075">
			<g
   id="g1073">
				<rect
   x="203.59599"
   y="240.929"
   width="25.851"
   height="25.851999"
   id="rect1033"
   style="opacity:0.7;fill:#009580" />
				<rect
   x="193.23199"
   y="273.75101"
   width="33.341999"
   height="33.341999"
   id="rect1035"
   style="opacity:0.7;fill:#009580" />
				<rect
   x="162.66901"
   y="275.92599"
   width="27.558001"
   height="27.556999"
   id="rect1037"
   style="opacity:0.7;fill:#009580" />
				<rect
   x="169.797"
   y="348.21399"
   width="20.165001"
   height="20.166"
   id="rect1039"
   style="fill:#009580" />
				<rect
   x="92.438004"
   y="318.07999"
   width="20.165001"
   height="20.166"
   id="rect1041"
   style="opacity:0.7;fill:#009580" />
				<rect
   x="139.14"
   y="286.37399"
   width="18.854"
   height="18.854"
   id="rect1043"
   style="opacity:0.5;fill:#009580" />
				<rect
   x="193.571"
   y="341.44601"
   width="16.853001"
   height="16.851999"
   id="rect1045"
   style="opacity:0.7;fill:#009580" />
				<rect
   x="84.652"
   y="360.60101"
   width="15.566"
   height="15.564"
   id="rect1047"
   style="fill:#009580" />
				<rect
   x="204.25301"
   y="223.258"
   width="14.132"
   height="14.133"
   id="rect1049"
   style="fill:#009580" />
				<rect
   x="167.952"
   y="376.10101"
   width="14.813"
   height="14.811"
   id="rect1051"
   style="opacity:0.7;fill:#009580" />
				<rect
   x="120.775"
   y="286.37399"
   width="14.811"
   height="14.811"
   id="rect1053"
   style="opacity:0.7;fill:#009580" />
				<rect
   x="140.30499"
   y="387.39001"
   width="16.312"
   height="16.309"
   id="rect1055"
   style="fill:#009580" />
				<rect
   x="108.408"
   y="348.21399"
   width="20.166"
   height="20.166"
   id="rect1057"
   style="opacity:0.7;fill:#009580" />
				<rect
   x="193.571"
   y="310.48099"
   width="25.844"
   height="25.844"
   id="rect1059"
   style="fill:#009580" />
				<rect
   x="108.801"
   y="378.78799"
   width="19.381001"
   height="19.379999"
   id="rect1061"
   style="opacity:0.7;fill:#009580" />
				<rect
   x="123.621"
   y="310.401"
   width="31.042"
   height="31.045"
   id="rect1063"
   style="fill:#009580" />
				<rect
   x="156.61099"
   y="308.66299"
   width="31.483999"
   height="31.488001"
   id="rect1065"
   style="opacity:0.7;fill:#009580" />
				<rect
   x="131.49001"
   y="345.74399"
   width="33.042999"
   height="33.043999"
   id="rect1067"
   style="opacity:0.5;fill:#009580" />
				<rect
   x="170.59599"
   y="240.743"
   width="30.49"
   height="30.490999"
   id="rect1069"
   style="fill:#009580" />
				<rect
   x="181.272"
   y="217.931"
   width="17.903999"
   height="17.906"
   id="rect1071"
   style="opacity:0.7;fill:#009580" />
			</g>
		</g>
	</g>
</g>
</svg>