<?xml version="1.0" encoding="UTF-8" standalone="no"?>
<svg
   xmlns:dc="http://purl.org/dc/elements/1.1/"
   xmlns:cc="http://creativecommons.org/ns#"
   xmlns:rdf="http://www.w3.org/1999/02/22-rdf-syntax-ns#"
   xmlns:svg="http://www.w3.org/2000/svg"
   xmlns="http://www.w3.org/2000/svg"
   height="28.65"
   width="136.89999"
   xml:space="preserve"
   viewBox="0 0 136.9 28.649999"
   y="0px"
   x="0px"
   id="Слой_1"
   version="1.1"><metadata
   id="metadata53"><rdf:RDF><cc:Work
       rdf:about=""><dc:format>image/svg+xml</dc:format><dc:type
         rdf:resource="http://purl.org/dc/dcmitype/StillImage" /><dc:title></dc:title></cc:Work></rdf:RDF></metadata><defs
   id="defs51" />
<style
   id="style2"
   type="text/css">
	.st0{display:none;}
	.st1{display:inline;fill:#F1DC4F;}
	.st2{display:inline;fill:#166FB7;}
	.st3{display:inline;fill:#010101;}
	.st4{display:inline;}
	.st5{fill:#166FB7;}
	.st6{fill:#F1DC4F;}
	.st7{fill:#010101;}
</style>
<g
   transform="translate(-56.27,-69.295)"
   style="display:none"
   id="g14"
   class="st0">
	<path
   style="display:inline;fill:#f1dc4f"
   id="path4"
   d="m 50.11,75.83 c -0.09,0 -0.17,-0.02 -0.26,-0.05 L 34.87,69.95 c -0.27,-0.11 -0.45,-0.36 -0.45,-0.65 0,-0.29 0.17,-0.55 0.44,-0.66 l 6.46,-2.63 c 0.23,-0.1 0.5,-0.06 0.7,0.09 0.2,0.15 0.3,0.4 0.27,0.66 -0.03,0.25 -0.2,0.47 -0.44,0.56 h -0.01 l -4.81,1.96 13.07,5.09 13.05,-5.08 -4.64,-1.86 c -0.36,-0.15 -0.54,-0.56 -0.39,-0.92 0.15,-0.36 0.56,-0.54 0.92,-0.39 l 6.3,2.53 c 0.27,0.11 0.45,0.37 0.44,0.66 0,0.29 -0.18,0.55 -0.45,0.66 L 50.35,75.8 c -0.07,0.01 -0.15,0.03 -0.24,0.03 z m 0,0"
   class="st1" />
	<path
   style="display:inline;fill:#166fb7"
   id="path6"
   d="M 65.34,60.84 50.36,55.01 c -0.17,-0.06 -0.35,-0.06 -0.51,0 l -14.98,5.83 c -0.27,0.11 -0.45,0.37 -0.45,0.66 0,0.29 0.18,0.55 0.45,0.66 l 14.98,5.83 c 0.16,0.06 0.35,0.06 0.51,0 l 14.98,-5.83 c 0.27,-0.11 0.45,-0.37 0.45,-0.66 0,-0.29 -0.18,-0.55 -0.45,-0.66 z M 50.11,66.57 37.08,61.5 50.11,56.43 63.14,61.5 Z m 0,0"
   class="st2" />
	<path
   style="display:inline;fill:#010101"
   id="path8"
   d="m 65.34,76.42 -6.13,-2.41 c -0.36,-0.14 -0.77,0.04 -0.92,0.4 -0.14,0.36 0.04,0.77 0.4,0.92 l 4.45,1.75 -13.04,5.08 -13.06,-5.09 4.77,-1.93 c 0.36,-0.15 0.54,-0.56 0.39,-0.92 -0.15,-0.36 -0.56,-0.54 -0.92,-0.39 l -6.42,2.6 c -0.27,0.11 -0.44,0.37 -0.44,0.66 0,0.29 0.18,0.55 0.45,0.65 l 14.98,5.83 c 0.16,0.06 0.35,0.06 0.51,0 l 14.98,-5.83 c 0.27,-0.11 0.45,-0.37 0.45,-0.66 0,-0.29 -0.17,-0.55 -0.45,-0.66 z m 0,0"
   class="st3" />
	<g
   style="display:inline"
   id="g12"
   class="st4">
		<path
   style="fill:#166fb7"
   id="path10"
   d="M 50.11,56.12 62.55,61.31 50.11,66.5 37.67,61.31 50.11,56.12 m 0,-1.46 -15.93,6.65 15.93,6.65 15.93,-6.65 z"
   class="st5" />
	</g>
</g>
<g
   transform="translate(-56.27,-69.295)"
   id="g46">
	<g
   id="g22">
		<path
   style="fill:#f1dc4f"
   id="path16"
   d="m 71.96,90.16 c -0.09,0 -0.17,-0.02 -0.26,-0.05 L 56.72,84.28 c -0.27,-0.11 -0.45,-0.36 -0.45,-0.65 0,-0.29 0.17,-0.55 0.44,-0.66 l 6.46,-2.63 c 0.23,-0.1 0.5,-0.06 0.7,0.09 0.2,0.15 0.3,0.4 0.27,0.66 -0.03,0.25 -0.2,0.47 -0.44,0.56 H 63.69 L 58.88,83.61 71.95,88.7 85,83.62 80.36,81.76 C 80,81.61 79.82,81.2 79.97,80.84 c 0.15,-0.36 0.56,-0.54 0.92,-0.39 l 6.3,2.53 c 0.27,0.11 0.45,0.37 0.44,0.66 0,0.29 -0.18,0.55 -0.45,0.66 L 72.2,90.13 c -0.06,0.02 -0.15,0.03 -0.24,0.03 z m 0,0"
   class="st6" />
		<path
   style="fill:#166fb7"
   id="path18"
   d="M 87.2,75.17 72.22,69.34 c -0.17,-0.06 -0.35,-0.06 -0.51,0 l -14.98,5.83 c -0.27,0.11 -0.45,0.37 -0.45,0.66 0,0.29 0.18,0.55 0.45,0.66 l 14.98,5.83 c 0.16,0.06 0.35,0.06 0.51,0 L 87.2,76.49 c 0.27,-0.11 0.45,-0.37 0.45,-0.66 0,-0.29 -0.18,-0.55 -0.45,-0.66 z m -15.24,5.74 -13.03,-5.07 13.03,-5.07 13.03,5.07 z m 0,0"
   class="st5" />
		<path
   style="fill:#010101"
   id="path20"
   d="m 87.2,90.76 -6.13,-2.41 c -0.36,-0.14 -0.77,0.04 -0.92,0.4 -0.14,0.36 0.04,0.77 0.4,0.92 L 85,91.41 71.96,96.49 58.9,91.4 63.67,89.47 c 0.36,-0.15 0.54,-0.56 0.39,-0.92 -0.15,-0.36 -0.56,-0.54 -0.92,-0.39 l -6.42,2.6 c -0.27,0.11 -0.44,0.37 -0.44,0.66 0,0.29 0.18,0.55 0.45,0.65 l 14.98,5.83 c 0.16,0.06 0.35,0.06 0.51,0 L 87.2,92.07 c 0.27,-0.11 0.45,-0.37 0.45,-0.66 0,-0.29 -0.18,-0.55 -0.45,-0.65 z m 0,0"
   class="st7" />
	</g>
	<g
   id="g44">
		<path
   style="fill:#010101"
   id="path24"
   d="M 100.38,90.89 V 80.28 c 0,-1.46 0.44,-2.62 1.31,-3.5 0.88,-0.87 2.11,-1.31 3.72,-1.31 1.17,0 2.12,0.17 2.85,0.52 0.14,0.07 0.21,0.17 0.21,0.28 v 1.08 c 0,0.18 -0.07,0.23 -0.21,0.17 -0.73,-0.35 -1.6,-0.52 -2.63,-0.52 -2.18,0 -3.28,1.09 -3.28,3.28 v 0.77 h 4.45 c 0.14,0 0.22,0.07 0.23,0.21 v 1.1 c 0,0.14 -0.08,0.21 -0.23,0.21 h -4.45 v 8.32 c 0,0.14 -0.08,0.21 -0.22,0.21 h -1.53 c -0.14,0 -0.22,-0.07 -0.22,-0.21 z"
   class="st7" />
		<path
   style="fill:#010101"
   id="path26"
   d="m 111.84,86.29 v -6.66 c 0,-0.14 0.07,-0.22 0.21,-0.22 h 1.54 c 0.14,0 0.21,0.08 0.21,0.22 v 6.66 c 0,1.15 0.3,2.04 0.9,2.67 0.6,0.63 1.36,0.94 2.27,0.94 0.42,0 0.83,-0.08 1.24,-0.24 0.41,-0.16 0.75,-0.35 1.02,-0.56 0.27,-0.22 0.51,-0.44 0.73,-0.67 0.41,-0.45 0.62,-0.72 0.62,-0.82 v -7.98 c 0,-0.14 0.07,-0.22 0.21,-0.22 h 1.54 c 0.14,0 0.21,0.08 0.21,0.22 v 11.26 c 0,0.14 -0.07,0.21 -0.21,0.21 h -1.21 c -0.14,0 -0.22,-0.07 -0.23,-0.21 l -0.2,-1.21 c -0.09,0.14 -0.28,0.33 -0.56,0.57 -0.28,0.23 -0.56,0.43 -0.83,0.58 -0.71,0.41 -1.52,0.61 -2.43,0.61 -1.47,0 -2.68,-0.46 -3.62,-1.37 -0.94,-0.92 -1.41,-2.18 -1.41,-3.78 z"
   class="st7" />
		<path
   style="fill:#010101"
   id="path28"
   d="M 128.1,90.89 V 76.02 c 0,-0.15 0.07,-0.23 0.21,-0.23 h 1.54 c 0.14,0 0.21,0.08 0.21,0.23 v 14.87 c 0,0.14 -0.07,0.21 -0.21,0.21 h -1.54 c -0.14,0 -0.21,-0.07 -0.21,-0.21 z"
   class="st7" />
		<path
   style="fill:#010101"
   id="path30"
   d="M 135.62,90.89 V 76.02 c 0,-0.15 0.07,-0.23 0.21,-0.23 h 1.54 c 0.14,0 0.21,0.08 0.21,0.23 v 14.87 c 0,0.14 -0.07,0.21 -0.21,0.21 h -1.54 c -0.14,0 -0.21,-0.07 -0.21,-0.21 z"
   class="st7" />
		<path
   style="fill:#010101"
   id="path32"
   d="m 142.05,87.98 c -0.01,-0.03 -0.01,-0.06 -0.01,-0.09 0,-0.11 0.08,-0.17 0.23,-0.17 h 1.38 c 0.08,0 0.17,0.07 0.27,0.21 0.73,1.31 2,1.96 3.82,1.96 1.03,0 1.8,-0.15 2.31,-0.46 0.5,-0.31 0.76,-0.69 0.76,-1.15 0,-0.46 -0.17,-0.84 -0.52,-1.14 -0.34,-0.3 -0.94,-0.54 -1.78,-0.74 l -2.73,-0.66 c -2.33,-0.57 -3.5,-1.7 -3.5,-3.38 0,-0.96 0.43,-1.75 1.3,-2.36 0.87,-0.61 2.06,-0.92 3.58,-0.92 1.52,0 2.74,0.31 3.67,0.94 0.93,0.63 1.54,1.46 1.84,2.51 0.04,0.18 -0.03,0.27 -0.22,0.27 h -1.38 c -0.08,0 -0.17,-0.07 -0.26,-0.22 -0.73,-1.31 -1.93,-1.96 -3.61,-1.96 -0.98,0 -1.71,0.16 -2.21,0.47 -0.5,0.31 -0.75,0.7 -0.75,1.16 0,0.46 0.17,0.84 0.52,1.13 0.35,0.29 0.94,0.54 1.78,0.75 l 2.73,0.65 c 2.33,0.55 3.5,1.69 3.5,3.39 0,0.96 -0.44,1.75 -1.32,2.36 -0.88,0.61 -2.12,0.92 -3.7,0.92 -1.58,0 -2.86,-0.31 -3.82,-0.93 -0.96,-0.63 -1.58,-1.48 -1.88,-2.54 z"
   class="st7" />
		<path
   style="fill:#010101"
   id="path34"
   d="m 157.23,86.62 v -10.6 c 0,-0.15 0.07,-0.23 0.21,-0.23 h 1.54 c 0.14,0 0.21,0.08 0.21,0.23 v 3.38 h 4.46 c 0.14,0 0.21,0.08 0.21,0.22 v 1.09 c 0,0.15 -0.07,0.22 -0.21,0.22 h -4.46 v 5.68 c 0,1.08 0.25,1.9 0.75,2.45 0.5,0.55 1.2,0.83 2.09,0.83 0.78,0 1.48,-0.11 2.1,-0.32 l 0.31,-0.12 c 0.14,-0.06 0.21,0 0.21,0.18 v 1.07 c 0,0.12 -0.07,0.22 -0.21,0.29 -0.73,0.29 -1.61,0.44 -2.62,0.44 -1.4,0 -2.52,-0.44 -3.35,-1.32 -0.83,-0.88 -1.24,-2.04 -1.24,-3.49 z"
   class="st7" />
		<path
   style="fill:#010101"
   id="path36"
   d="m 169.04,90.44 c -0.82,-0.67 -1.23,-1.57 -1.23,-2.72 0,-1.15 0.42,-2.06 1.27,-2.72 0.84,-0.66 2.02,-1 3.54,-1 h 3.73 v -0.11 c 0,-2.18 -1.1,-3.28 -3.29,-3.28 -0.68,0 -1.26,0.16 -1.74,0.49 -0.48,0.33 -0.81,0.75 -0.99,1.26 -0.04,0.14 -0.13,0.21 -0.26,0.21 h -1.38 c -0.17,0 -0.24,-0.07 -0.23,-0.21 0.11,-0.99 0.58,-1.78 1.41,-2.38 0.83,-0.6 1.89,-0.9 3.18,-0.9 1.69,0 2.99,0.42 3.9,1.25 0.9,0.84 1.36,2.02 1.36,3.55 v 7 c 0,0.14 -0.08,0.21 -0.22,0.21 h -1.2 c -0.14,0 -0.22,-0.07 -0.24,-0.21 l -0.19,-1.21 c -0.09,0.14 -0.27,0.32 -0.57,0.56 -0.3,0.24 -0.58,0.43 -0.87,0.58 -0.77,0.41 -1.64,0.61 -2.61,0.61 -1.43,0.01 -2.55,-0.32 -3.37,-0.98 z m 0.73,-2.72 c 0,0.71 0.24,1.25 0.71,1.62 0.47,0.37 1.15,0.55 2.02,0.55 0.47,0 0.92,-0.08 1.36,-0.24 0.44,-0.16 0.8,-0.35 1.08,-0.56 0.28,-0.22 0.53,-0.44 0.75,-0.67 0.22,-0.23 0.38,-0.42 0.49,-0.57 0.1,-0.15 0.15,-0.24 0.15,-0.25 v -2.07 h -3.73 c -1.88,0 -2.83,0.73 -2.83,2.19 z"
   class="st7" />
		<path
   style="fill:#166fb7"
   id="path38"
   d="m 184.32,79.63 c -0.11,-0.15 -0.26,-0.22 -0.44,-0.22 h -1.57 c -0.14,0 -0.21,0.05 -0.21,0.15 0.01,0.03 0.02,0.05 0.04,0.08 l 3.55,4.56 1.1,-1.4 z"
   class="st5" />
		<g
   id="g42">
			<path
   style="fill:#166fb7"
   id="path40"
   d="m 188.72,85.26 4.42,-5.64 c 0.02,-0.02 0.03,-0.05 0.03,-0.08 0,-0.1 -0.07,-0.15 -0.21,-0.15 h -1.57 c -0.18,0.01 -0.32,0.08 -0.44,0.22 l -8.81,11.26 c -0.03,0.02 -0.04,0.06 -0.02,0.12 0.01,0.06 0.08,0.09 0.19,0.09 h 1.57 c 0.18,0 0.32,-0.07 0.44,-0.21 l 3.31,-4.23 3.32,4.23 c 0.11,0.14 0.26,0.21 0.44,0.21 h 1.57 c 0.14,0 0.21,-0.05 0.21,-0.14 0,-0.03 -0.01,-0.05 -0.03,-0.08 z"
   class="st5" />
		</g>
	</g>
</g>
</svg>