<?xml version="1.0" encoding="UTF-8" standalone="no"?>
<svg
   xmlns:dc="http://purl.org/dc/elements/1.1/"
   xmlns:cc="http://creativecommons.org/ns#"
   xmlns:rdf="http://www.w3.org/1999/02/22-rdf-syntax-ns#"
   xmlns:svg="http://www.w3.org/2000/svg"
   xmlns="http://www.w3.org/2000/svg"
   id="svg8"
   version="1.1"
   viewBox="0 0 57.885418 56.5625"
   height="56.5625mm"
   width="57.885418mm">
  <defs
     id="defs2">
    <style
       type="text/css"
       id="style935">
   
    .fil0 {fill:#000000;fill-rule:nonzero}
   
  </style>
  </defs>
  <metadata
     id="metadata5">
    <rdf:RDF>
      <cc:Work
         rdf:about="">
        <dc:format>image/svg+xml</dc:format>
        <dc:type
           rdf:resource="http://purl.org/dc/dcmitype/StillImage" />
        <dc:title></dc:title>
      </cc:Work>
    </rdf:RDF>
  </metadata>
  <g
     transform="translate(0.74956533,0.93345341)"
     id="layer5">
    <rect
       y="-0.43345341"
       x="-0.24956533"
       height="55.5625"
       width="56.885418"
       id="rect1310"
       style="fill:#ffffff;fill-opacity:1;fill-rule:nonzero;stroke:#000008;stroke-width:1;stroke-linecap:round;stroke-linejoin:round;stroke-miterlimit:4;stroke-dasharray:none;stroke-opacity:1;paint-order:normal" />
  </g>
  <g
     transform="translate(-16.697915,-8.1041841)"
     id="layer1">
    <g
       transform="matrix(0.39650196,0,0,0.34095211,23.238543,50.515502)"
       id="g1135"
       style="fill:#8b4513;fill-opacity:1">
      <g
         style="fill:#8b4513;fill-opacity:1"
         data-name="Layer 2"
         id="g1119">
        <g
           style="fill:#8b4513;fill-opacity:1"
           id="g1117">
          <path
             style="fill:#8b4513;fill-opacity:1"
             d="M 35.32037,12.24707 A 19.46728,19.46728 0 0 0 29.12628,8.72632 C 28.90875,5.72754 27.37042,3.47168 25.44341,3.47168 c -1.55615,0 -2.85986,1.46936 -3.41943,3.61291 A 36.95958,36.95958 0 0 0 17.7442,6.83105 40.73023,40.73023 0 0 0 12.29742,7.23364 29.18945,29.18945 0 0 0 4.88482,9.31519 V 7.8667 C 6.05792,7.512 6.918,5.92981 6.918,3.97168 6.918,1.74414 5.80572,0 4.38482,0 2.9649,0 1.85259,1.74414 1.85259,3.97168 c 0,1.958 0.85987,3.54 2.03223,3.8949 V 9.78613 A 17.2103,17.2103 0 0 0 0.168,12.24707 0.50014,0.50014 0 0 0 0.83207,12.99507 21.718,21.718 0 0 1 11.0296,8.46631 C 9.0567,10.57983 5.38922,15.14209 6.74322,18.63574 a 12.72547,12.72547 0 0 0 3.96094,4.89551 c 1.57129,1.36816 2.92871,2.54883 3.1455,4.35938 a 0.49963,0.49963 0 0 0 0.49512,0.44042 0.42024,0.42024 0 0 0 0.06055,-0.0039 0.49852,0.49852 0 0 0 0.43652,-0.55567 C 14.58013,25.57813 13.01568,24.21777 11.36041,22.77734 A 11.77443,11.77443 0 0 1 7.67486,18.27441 C 6.261,14.62573 11.76641,9.09375 12.71319,8.1792 12.86675,8.15747 13.02398,8.14136 13.17877,8.12158 12.90899,8.52417 12.58941,9.01941 12.25396,9.58008 a 0.49848,0.49848 0 0 0 0.17188,0.68555 0.49107,0.49107 0 0 0 0.25683,0.07128 0.49915,0.49915 0 0 0 0.42871,-0.24316 c 0.563,-0.94092 1.08472,-1.69861 1.38062,-2.11389 0.34765,-0.03089 0.69726,-0.05786 1.0498,-0.079 -1.48779,1.87646 -4.37549,6.26391 -1.88452,9.52588 a 11.05767,11.05767 0 0 0 4.27539,3.03808 c 2.56836,1.25684 5.22461,2.55664 6.25781,7.46875 a 0.49931,0.49931 0 0 0 0.48829,0.39746 0.46554,0.46554 0 0 0 0.10351,-0.01074 A 0.5,0.5 0 0 0 25.169,27.7285 C 24.03521,22.33787 21.02642,20.86521 18.37213,19.56639 A 10.13949,10.13949 0 0 1 14.4522,16.81932 C 12.03814,13.658 16.066,8.7832 16.89044,7.846 17.17437,7.83941 17.45782,7.8311 17.7442,7.8311 a 35.95822,35.95822 0 0 1 4.08642,0.23926 9.831,9.831 0 0 0 -0.1001,1.38672 c 0,3.08179 1.37647,5.54492 3.21289,5.92847 v 3.56079 a 0.5,0.5 0 1 0 1,0 v -3.56096 c 1.76343,-0.36853 3.09839,-2.65784 3.20118,-5.56958 a 18.19168,18.19168 0 0 1 5.51172,3.17932 0.50014,0.50014 0 0 0 0.66406,-0.748 z M 2.85259,3.97168 C 2.85259,2.2207 3.66021,1 4.38482,1 5.11041,1 5.918,2.2207 5.918,3.97168 A 3.52241,3.52241 0 0 1 4.8848,6.75256 V 4.87793 a 0.5,0.5 0 0 0 -1,0 V 6.7522 A 3.525,3.525 0 0 1 2.85259,3.97168 Z m 23.09082,10.37573 v -3.45678 a 0.5,0.5 0 0 0 -1,0 v 3.45678 c -1.24121,-0.446 -2.21289,-2.50073 -2.21289,-4.89038 0,-2.70215 1.24219,-4.98535 2.71289,-4.98535 1.46973,0 2.71192,2.2832 2.71192,4.98535 0,2.38941 -0.97144,4.44409 -2.21192,4.89038 z"
             id="path1109" />
          <path
             style="fill:#8b4513;fill-opacity:1"
             d="m 14.73345,20.90723 -0.65332,-0.4541 a 0.49986,0.49986 0 1 0 -0.57422,0.81835 l 0.65723,0.458 c 0.59863,0.415 1.2002,0.83106 1.76856,1.27051 a 0.50063988,0.50063988 0 0 0 0.61132,-0.793 C 15.96,21.75879 15.34576,21.332 14.73345,20.90723 Z"
             id="path1111" />
          <path
             style="fill:#8b4513;fill-opacity:1"
             d="m 10.72955,13.8916 a 0.49266,0.49266 0 0 0 -0.61817,0.34278 7.888,7.888 0 0 0 -0.33691,2.1289 4.44026,4.44026 0 0 0 0.12793,1.0918 0.49986,0.49986 0 0 0 0.48437,0.377 0.4888,0.4888 0 0 0 0.123,-0.01562 0.49911,0.49911 0 0 0 0.36133,-0.60743 3.44307,3.44307 0 0 1 -0.09668,-0.84472 6.94307,6.94307 0 0 1 0.29785,-1.85449 0.499,0.499 0 0 0 -0.34272,-0.61822 z"
             id="path1113" />
          <path
             style="fill:#8b4513;fill-opacity:1"
             d="m 19.15338,25.96973 a 0.5006,0.5006 0 0 0 -0.32422,0.6289 5.15763,5.15763 0 0 1 0.23242,1.26172 0.50042,0.50042 0 0 0 0.499,0.4707 l 0.0293,-0.001 a 0.49946,0.49946 0 0 0 0.46973,-0.52832 6.10712,6.10712 0 0 0 -0.27735,-1.50781 0.49941,0.49941 0 0 0 -0.62888,-0.32419 z"
             id="path1115" />
        </g>
      </g>
    </g>
    <g
       transform="matrix(-0.01653303,0,0,0.0162611,36.485408,36.059193)"
       id="g952"
       style="clip-rule:evenodd;display:inline;fill:#ba55d3;fill-opacity:1;fill-rule:evenodd;image-rendering:optimizeQuality;shape-rendering:geometricPrecision;text-rendering:geometricPrecision">
      <g
         style="fill:#ba55d3;fill-opacity:1"
         id="g941">
        <path
           style="fill:#ba55d3;fill-opacity:1;fill-rule:nonzero"
           class="fil0"
           d="m 176,458 c 48,0 88,35 96,81 h 299 c 8,-46 49,-81 96,-81 48,0 88,35 96,81 h 41 V 391 c -14,-15 -28,-30 -43,-44 -84,-82 -278,-222 -494,2 -3,3 -6,5 -10,5 -99,12 -154,26 -184,41 -25,13 -30,24 -30,34 v 110 h 37 c 8,-46 49,-81 96,-81 z m 96,114 c -8,47 -48,81 -96,81 -47,0 -88,-34 -96,-81 H 27 C 17,572 10,565 10,556 V 429 c 0,-21 9,-43 48,-63 33,-17 90,-32 189,-44 235,-239 445,-88 537,1 7,7 53,58 53,61 v 172 c 0,9 -8,16 -17,16 h -57 c -8,47 -48,81 -96,81 -47,0 -88,-34 -96,-81 z m 395,-81 c -35,0 -64,29 -64,65 0,35 29,64 64,64 36,0 65,-29 65,-64 0,-36 -29,-65 -65,-65 z m -491,0 c -35,0 -64,29 -64,65 0,35 29,64 64,64 36,0 65,-29 65,-64 0,-36 -29,-65 -65,-65 z"
           id="path939" />
      </g>
    </g>
    <g
       id="g1167"
       style="display:inline"
       transform="translate(0.05573782,-0.82190569)">
      <path
         id="path866"
         transform="matrix(0.1380568,0,0,0.13440957,22.619811,11.215332)"
         d="M 58.8125,21 A 2.0021961,2.0021961 0 1 0 59,25 h 9.46875 l 2.8125,10 h -31.6875 l -1.6875,-5.59375 A 2.0002,2.0002 0 0 0 36,28 H 25 A 2.0002,2.0002 0 0 0 24.8125,28 2.0021961,2.0021961 0 1 0 25,32 h 9.53125 l 1.34375,4.46875 -6.34375,8.6875 C 26.989822,43.780711 24.084287,43 21,43 11.082566,43 3,51.0825 3,61 c 0,9.9174 8.082554,18 18,18 8.542674,0 15.704458,-5.998951 17.53125,-14 H 46 a 2.0002,2.0002 0 0 0 1.375,-0.5625 L 72.8125,40.375 73.78125,43.78125 C 66.397748,46.026812 61,52.897001 61,61 c 0,9.9174 8.082554,18 18,18 9.917446,0 18,-8.0826 18,-18 0,-9.9175 -8.082563,-18 -18,-18 -0.420212,0 -0.836851,0.03395 -1.25,0.0625 L 71.9375,22.4375 A 2.0002,2.0002 0 0 0 70,21 H 59 a 2.0002,2.0002 0 0 0 -0.1875,0 z m -18,18 h 27.65625 l -21.5,20.3125 z M 37.34375,41.28125 43.3125,61 H 39 C 39,55.604108 36.59147,50.772034 32.8125,47.46875 Z M 21,47 c 2.201384,0 4.275378,0.539576 6.125,1.4375 l -9.75,13.375 A 2.0002,2.0002 0 0 0 19,65 H 34.4375 C 32.729283,70.80286 27.370377,75 21,75 13.24433,75 7,68.7556 7,61 7,53.2443 13.244318,47 21,47 Z m 57.875,0 c 0.04188,-3.65e-4 0.08303,0 0.125,0 7.755679,0 14,6.2443 14,14 0,7.7556 -6.24433,14 -14,14 -7.75567,0 -14,-6.2444 -14,-14 0,-6.312087 4.123047,-11.616568 9.84375,-13.375 l 4.21875,14.90625 a 2.0132011,2.0132011 0 0 0 3.875,-1.09375 z M 30.46875,50.6875 C 33.250448,53.242913 35,56.907725 35,61 H 22.9375 Z"
         style="color:#000000;font-style:normal;font-variant:normal;font-weight:normal;font-stretch:normal;font-size:medium;line-height:normal;font-family:Sans;-inkscape-font-specification:Sans;text-indent:0;text-align:start;text-decoration:none;text-decoration-line:none;letter-spacing:normal;word-spacing:normal;text-transform:none;writing-mode:lr-tb;direction:ltr;baseline-shift:baseline;text-anchor:start;display:inline;overflow:visible;visibility:visible;opacity:1;fill:#008000;fill-opacity:1;stroke:none;stroke-width:4;marker:none;enable-background:accumulate" />
      <flowRoot
         xml:space="preserve"
         id="flowRoot1021"
         style="font-style:normal;font-variant:normal;font-weight:normal;font-stretch:normal;font-size:24px;line-height:125%;font-family:Arial;-inkscape-font-specification:Arial;text-align:start;letter-spacing:0px;word-spacing:0px;writing-mode:lr-tb;text-anchor:start;fill:#008000;fill-opacity:1;stroke:none;stroke-width:1px;stroke-linecap:butt;stroke-linejoin:miter;stroke-opacity:1"
         transform="matrix(0.26458333,0,0,0.26458333,-5.7462948,5.0113036)"><flowRegion
           id="flowRegion1023"
           style="font-size:24px;fill:#008000;fill-opacity:1"><rect
             id="rect1025"
             width="368.70569"
             height="80.812202"
             x="169.70563"
             y="41.65646"
             style="font-size:24px;fill:#008000;fill-opacity:1" /></flowRegion><flowPara
           id="flowPara1027">Fahrrad</flowPara></flowRoot>    </g>
    <flowRoot
       transform="matrix(0.26458333,0,0,0.26458333,-4.1537562,-14.185384)"
       style="font-style:normal;font-variant:normal;font-weight:normal;font-stretch:normal;font-size:24px;line-height:125%;font-family:Arial;-inkscape-font-specification:Arial;text-align:start;letter-spacing:0px;word-spacing:0px;writing-mode:lr-tb;text-anchor:start;display:inline;fill:#800080;fill-opacity:1;stroke:none;stroke-width:1px;stroke-linecap:butt;stroke-linejoin:miter;stroke-opacity:1"
       id="flowRoot1029"
       xml:space="preserve"><flowRegion
         style="fill:#800080;fill-opacity:1"
         id="flowRegion1031"><rect
           style="fill:#800080;fill-opacity:1"
           y="156.81386"
           x="163.64471"
           height="38.385796"
           width="262.63965"
           id="rect1033" /></flowRegion><flowPara
         id="flowPara1035">Fußgänger</flowPara></flowRoot>    <flowRoot
       transform="matrix(0.26458333,0,0,0.26458333,-4.1641222,-36.582638)"
       style="font-style:normal;font-variant:normal;font-weight:normal;font-stretch:normal;font-size:24px;line-height:125%;font-family:Arial;-inkscape-font-specification:Arial;text-align:start;letter-spacing:0px;word-spacing:0px;writing-mode:lr-tb;text-anchor:start;display:inline;fill:#ba55d3;fill-opacity:1;stroke:none;stroke-width:1px;stroke-linecap:butt;stroke-linejoin:miter;stroke-opacity:1"
       id="flowRoot1037"
       xml:space="preserve"><flowRegion
         style="fill:#ba55d3;fill-opacity:1"
         id="flowRegion1039"><rect
           style="fill:#ba55d3;fill-opacity:1"
           y="286.11337"
           x="164.65486"
           height="44.446712"
           width="238.396"
           id="rect1041" /></flowRegion><flowPara
         id="flowPara1043">Auto</flowPara></flowRoot>    <flowRoot
       transform="matrix(0.26458333,0,0,0.26458333,-4.3242822,-24.623)"
       style="font-style:normal;font-variant:normal;font-weight:normal;font-stretch:normal;font-size:24px;line-height:125%;font-family:Arial;-inkscape-font-specification:Arial;text-align:start;letter-spacing:0px;word-spacing:0px;writing-mode:lr-tb;text-anchor:start;display:inline;fill:#8b4513;fill-opacity:1;stroke:none;stroke-width:1px;stroke-linecap:butt;stroke-linejoin:miter;stroke-opacity:1"
       id="flowRoot1037-3"
       xml:space="preserve"><flowRegion
         style="fill:#8b4513;fill-opacity:1"
         id="flowRegion1039-6"><rect
           style="fill:#8b4513;fill-opacity:1"
           y="286.11337"
           x="164.65486"
           height="44.446712"
           width="238.396"
           id="rect1041-7" /></flowRegion><flowPara
         id="flowPara1043-5">Feldwege</flowPara></flowRoot>    <g
       transform="matrix(0.13720359,0,0,0.12524841,21.693216,22.686468)"
       id="g1019"
       style="display:inline;fill:#800080;fill-opacity:1">
      <g
         style="fill:#800080;fill-opacity:1"
         transform="translate(0,-952.36218)"
         id="g1007">
        <path
           style="color:#000000;font-style:normal;font-variant:normal;font-weight:normal;font-stretch:normal;font-size:medium;line-height:normal;font-family:Sans;-inkscape-font-specification:Sans;text-indent:0;text-align:start;text-decoration:none;text-decoration-line:none;letter-spacing:normal;word-spacing:normal;text-transform:none;writing-mode:lr-tb;direction:ltr;baseline-shift:baseline;text-anchor:start;display:inline;overflow:visible;visibility:visible;opacity:1;fill:#800080;fill-opacity:1;stroke:none;stroke-width:4.00000048;marker:none;enable-background:accumulate"
           d="m 50.25,9 c -5.216534,0 -9.5,4.25446 -9.5,9.46875 -4.93e-4,2.716051 1.149593,5.199989 3,6.9375 -1.203346,0.656984 -2.170673,1.620402 -2.71875,2.8125 L 33.75,44.0625 c -0.775983,1.68781 -1.052395,3.62375 -0.6875,5.46875 0.182447,0.9226 0.545411,1.8355 1.21875,2.625 0.673339,0.7896 1.705064,1.4111 2.84375,1.5625 1.968895,0.2616 3.424045,-0.9822 4.125,-2.375 L 41.5,50.8125 v 0.125 l -8.09375,21.125 c -0.718423,1.876 -0.603719,4.01615 0.34375,5.90625 0.947469,1.89 2.931495,3.5001 5.53125,3.8125 a 2.0002002,2.0002002 0 0 0 2,-1.03125 l 8.25,-15.53125 a 2.0002002,2.0002002 0 0 0 0.15625,-0.3125 l 1.5,-4.71875 L 51.53125,61 c 0.4766,1.1659 1.150154,3.7618 1.28125,5 l 1.15625,10.9375 a 2.0002002,2.0002002 0 0 0 0.09375,0.46875 c 0.747887,2.1298 2.439712,3.5822 4.28125,4.0625 1.841538,0.4802 3.762681,0.13445 5.40625,-0.71875 a 2.0002002,2.0002002 0 0 0 1.0625,-1.96875 L 64.0625,71.125 H 92 a 2.0002002,2.0002002 0 1 0 0,-4 H 63.65625 L 62.59375,56.28125 A 2.0002002,2.0002002 0 0 0 62.4375,55.6875 l -1.75,-4.125 c 0.965023,0.4887 1.918983,1.03695 2.96875,1.28125 1.567987,0.3648 3.265596,0.4438 4.8125,-0.4375 1.546904,-0.8812 2.515721,-2.75225 2.5625,-4.875 a 2.0002002,2.0002002 0 0 0 -0.59375,-1.5 C 63.165379,38.951457 59.204676,34.814622 55.46875,26.40625 58.04737,24.700677 59.75,21.766651 59.75,18.46875 59.75,13.25421 55.467087,9 50.25,9 Z m 0,4 c 3.050093,0 5.5,2.42603 5.5,5.46875 0,3.04367 -2.449923,5.5 -5.5,5.5 -3.04913,0 -5.500553,-2.45653 -5.5,-5.5 C 44.75,15.42578 47.200854,13 50.25,13 Z m -3.1875,15.53125 h 5.0625 c 3.76637,8.23528 8.100327,13.08861 14.8125,19.65625 -0.09861,0.4081 -0.260302,0.61785 -0.4375,0.71875 -0.265546,0.1513 -0.972732,0.2866 -1.9375,0.0625 -1.929536,-0.4491 -4.395981,-2.35237 -4.84375,-3.25 a 2.0002002,2.0002002 0 0 0 -3.8125,0.875 V 50.1875 A 2.0002002,2.0002002 0 0 0 56.0625,51 l 2.59375,5.96875 2,20.40625 c -0.446918,0.066 -0.927845,0.31085 -1.28125,0.21875 -0.665267,-0.1736 -1.117823,-0.5286 -1.46875,-1.4375 L 56.78125,65.5625 C 56.582606,63.6863 55.95892,61.20295 55.25,59.46875 l -2.4375,-5.9375 a 2.0002002,2.0002002 0 0 0 -3.75,0.15625 L 46,63.34375 45.96875,63.40625 38.53125,77.375 C 37.999938,77.082 37.60298,76.7046 37.34375,76.1875 36.918871,75.3399 36.884904,74.2085 37.15625,73.5 L 45.375,52.0625 A 2.0002002,2.0002002 0 0 0 45.5,51.40625 L 45.78125,41.875 A 2.0002002,2.0002002 0 0 0 42,40.9375 l -4.3125,8.59375 C 37.62821,49.64915 37.499332,49.721186 37.53125,49.75 37.4362,49.72207 37.3913,49.6552 37.3125,49.5625 37.208371,49.4404 37.05114,49.1666 36.96875,48.75 c -0.16478,-0.8332 0.0064,-2.13025 0.40625,-3 l 7.28125,-15.875 c 0.364977,-0.79384 1.052728,-1.34367 2.40625,-1.34375 z M 22.8125,67.125 a 2.0021961,2.0021961 0 1 0 0.1875,4 h 7.0625 a 2.0002002,2.0002002 0 1 0 0,-4 H 23 a 2.0002002,2.0002002 0 0 0 -0.1875,0 z M 7.8125,87 A 2.0021961,2.0021961 0 1 0 8,91 h 69 a 2.0002002,2.0002002 0 1 0 0,-4 H 8 a 2.0002002,2.0002002 0 0 0 -0.1875,0 z"
           transform="translate(0,952.36218)"
           id="path1005" />
      </g>
    </g>
  </g>
</svg>
